# xmcd CD database file generated by OrangeCD 6.3
#
# Track frame offsets:
#	150
#	20697
#	37698
#	53130
#	91853
#	129955
#	154137
#	172915
#	189097
#	217144
#	236387
#	262361
#	278465
#	298384
#	317932
#	333679
#
# Disc length: 4636 seconds
#
# Revision: 2
# Processed by: cddbd v1.5.2PL0 Copyright (c) Steve Scherf et al.
# Submitted via: OrangeCD 6.3
#
DISCID=e5121a10
DTITLE=Various Artist - Compilation 2010
DYEAR=2010
DGENRE=Compilation
TTITLE0=Men At Work - It's A Mistake
TTITLE1=Men At Work - Overkill
TTITLE2=Men At Work - Who Can It Be Now?
TTITLE3=Metallica - Master Of Puppets
TTITLE4=Metallica - Orion
TTITLE5=Michael Kamen - The Highlander Theme
TTITLE6=Mike and The Mechanics - All I Need Is A Miracle
TTITLE7=Mike and The Mechanics - Par Avion
TTITLE8=Mike and The Mechanics - Silent Running
TTITLE9=Mike and The Mechanics - Taken In
TTITLE10=Mr. Mister - Broken Wings
TTITLE11=Mr. Mister - Is It Love
TTITLE12=Mr. Mister - Kyrie
TTITLE13=Mr. Mister - Welcome To The Real World
TTITLE14=Olivia Newton-John - A Little More Love
TTITLE15=Olivia Newton-John - Hopelessly Devoted To You
EXTD=
EXTT0=
EXTT1=
EXTT2=
EXTT3=
EXTT4=
EXTT5=
EXTT6=
EXTT7=
EXTT8=
EXTT9=
EXTT10=
EXTT11=
EXTT12=
EXTT13=
EXTT14=
EXTT15=
PLAYORDER=
